<svg width="462" height="513" viewBox="0 0 462 513" fill="none" xmlns="http://www.w3.org/2000/svg">
<path fill-rule="evenodd" clip-rule="evenodd" d="M127.086 -121.962C196.272 -142.259 270.429 -82.3058 314.709 -25.403C354.472 25.6957 323.472 101.094 347.461 161.233C374.412 228.802 472.915 269.569 460.992 341.33C449.432 410.908 363.124 442.483 296.763 466.377C242.191 486.027 184.866 456.505 127.086 461.56C60.3197 467.402 -16.1592 543.304 -65.6271 498.084C-117.436 450.725 -46.0203 362.064 -57.5113 292.817C-66.2251 240.306 -137.321 202.839 -123.134 151.536C-109.041 100.57 -30.303 104.352 5.39066 65.3382C56.909 9.02707 53.85 -100.478 127.086 -121.962Z" fill="#E39BF5" fill-opacity="0.3"/>
</svg>
